<svg width="24" height="24" viewBox="0 0 24 24" fill="none" xmlns="http://www.w3.org/2000/svg">
<path d="M21.266 20.9981H2.733C2.37574 20.9981 2.04562 20.8075 1.86699 20.4981C1.68837 20.1887 1.68837 19.8075 1.867 19.4981L11.133 3.49811C11.3118 3.18923 11.6416 2.99902 11.9985 2.99902C12.3554 2.99902 12.6852 3.18923 12.864 3.49811L22.13 19.4981C22.3085 19.8074 22.3086 20.1883 22.1303 20.4977C21.9519 20.807 21.6221 20.9977 21.265 20.9981H21.266ZM12 5.99811L4.469 18.9981H19.533L12 5.99811ZM12.995 14.9991H10.995V9.99811H12.995V14.9991Z" fill="#182233"/>
<path d="M11 16.0001H13V18.0001H11V16.0001Z" fill="#182233"/>
</svg>
